<mxfile host="app.diagrams.net" modified="2024-02-08T07:13:20.527Z" agent="Mozilla/5.0 (Windows NT 10.0; Win64; x64) AppleWebKit/537.36 (KHTML, like Gecko) Chrome/121.0.0.0 Safari/537.36" version="23.0.2" etag="CkzTvf7PrMBNBphgjvsI" type="github">
  <diagram name="Page-1" id="m3JJQ44KRjg1wA6EPXdw">
    <mxGraphModel>
      <root>
        <mxCell id="0" />
        <mxCell id="1" parent="0" />
      </root>
    </mxGraphModel>
  </diagram>
</mxfile>
